<?xml version="1.0" encoding="UTF-8"?>
<!DOCTYPE svg PUBLIC "-//W3C//DTD SVG 1.1//EN" "http://www.w3.org/Graphics/SVG/1.1/DTD/svg11.dtd">
<!-- Creator: CorelDRAW X6 -->
<svg xmlns="http://www.w3.org/2000/svg" xml:space="preserve" width="3in" height="1.33333in" version="1.1" style="shape-rendering:geometricPrecision; text-rendering:geometricPrecision; image-rendering:optimizeQuality; fill-rule:evenodd; clip-rule:evenodd"
viewBox="0 0 3000 1333"
 xmlns:xlink="http://www.w3.org/1999/xlink">
 <defs>
  <style type="text/css">
   <![CDATA[
    .fil3 {fill:none}
    .fil1 {fill:none;fill-rule:nonzero}
    .fil2 {fill:#136689}
    .fil5 {fill:black;fill-rule:nonzero}
    .fil0 {fill:#136689;fill-rule:nonzero}
    .fil4 {fill:#F8C300;fill-rule:nonzero}
   ]]>
  </style>
 </defs>
 <g id="Layer_x0020_1">
  <metadata id="CorelCorpID_0Corel-Layer"/>
  <g id="_760324656">
   <path id="_149256120" class="fil0" d="M882 327c23,6 41,15 55,25 13,11 21,22 23,33 2,12 -1,23 -9,34 -5,7 -13,12 -22,18 3,-3 6,-5 7,-9l0 0c3,-5 4,-11 4,-16 0,-6 -1,-12 -4,-18 -4,-9 -9,-17 -18,-26 -2,-2 -3,-3 -5,-5 -2,-2 -4,-4 -6,-5l0 0 0 0 0 0c-10,-9 -22,-17 -37,-24 -3,-1 -6,-3 -9,-4 -3,-1 -6,-2 -9,-4l0 0 0 0 0 0c-20,-7 -41,-12 -62,-16 -1,0 -3,0 -4,-1 34,4 66,9 97,18zm-41 110c-5,-4 -9,-7 -11,-11 -3,-5 -3,-8 0,-9 7,-2 16,-4 28,-8 12,-3 22,-8 31,-14 13,-9 20,-17 22,-24l0 0c8,8 13,16 16,24 2,5 4,10 4,15 0,4 -1,9 -3,13l0 0c-2,4 -6,8 -12,11 -6,3 -13,6 -22,8 -6,2 -11,3 -16,3 -5,0 -11,0 -16,-1 -5,-1 -10,-3 -15,-5 -3,-1 -5,-2 -8,-3zm37 -91c-1,0 -3,-1 -5,-1 -8,-1 -18,-3 -29,-3 -25,-5 -57,-3 -78,-1 -6,0 -11,1 -15,1 -19,1 -39,3 -61,5 -22,3 -45,6 -70,11 -16,3 -32,6 -48,9 -16,3 -32,7 -49,12l0 0 0 0 0 0c-5,1 -9,3 -14,4 -4,1 -9,3 -14,4 -24,7 -47,15 -69,25 -16,6 -32,14 -47,21 -15,8 -31,16 -46,24 -15,9 -30,18 -44,28 -14,10 -28,20 -41,32 -13,11 -22,19 -30,28 -8,8 -13,17 -17,26l0 0c-4,9 -6,17 -6,24 0,7 2,13 6,18 -1,0 -2,0 -3,0 -2,0 -4,-1 -7,-2 -3,-1 -5,-2 -8,-4 -3,-2 -5,-4 -8,-6 -3,-2 -5,-5 -6,-8 -2,-3 -3,-6 -4,-10 -3,-10 -4,-19 -4,-28 0,-9 2,-18 6,-27 4,-9 9,-18 15,-26 6,-8 13,-17 21,-24 8,-8 17,-16 26,-23 9,-8 20,-15 30,-22 11,-7 21,-14 32,-20l0 0c11,-6 22,-13 32,-19 19,-10 38,-20 59,-28 21,-8 42,-16 65,-22l0 0 0 0 0 0c6,-2 12,-4 19,-5 6,-2 13,-3 19,-5 33,-8 66,-13 99,-17 23,-3 46,-4 69,-5 23,-1 46,0 69,1 23,1 45,4 66,7 21,4 41,9 61,15l0 0 0 0 0 0c3,1 6,2 9,3 3,1 6,2 9,4 4,2 8,4 11,6zm-513 468c4,-22 10,-46 18,-72 8,-26 18,-52 30,-79 11,-27 24,-53 37,-79 13,-26 27,-50 41,-72 14,-22 28,-41 42,-58 14,-17 27,-29 39,-37 7,-5 16,-8 25,-10 9,-2 17,-3 25,-2 8,0 14,1 19,2 5,1 6,3 5,4 -12,13 -26,29 -42,49 -16,20 -33,43 -49,68 -17,25 -34,52 -51,80 -17,28 -32,58 -46,87 -14,30 -26,59 -36,89 -10,30 -17,58 -20,85 -1,6 -4,9 -9,9 -5,0 -9,-3 -14,-8 -5,-6 -9,-13 -12,-23 -3,-10 -4,-21 -1,-35z"/>
   <path id="_149256048" class="fil0" d="M729 536c-8,28 -15,57 -22,85 -7,28 -14,57 -21,85 18,-42 35,-75 49,-101 14,-25 26,-43 35,-53 11,-11 23,-17 36,-17 8,0 15,3 21,9 5,6 8,15 8,26 0,19 -4,36 -14,49 -6,8 -13,13 -20,13 -9,0 -15,-4 -19,-11 -4,-7 -7,-12 -9,-13 -2,-1 -3,-2 -5,-2 -2,0 -4,1 -6,2 -5,2 -11,8 -18,17 -7,9 -16,25 -26,47 -10,22 -18,41 -24,56 -6,15 -14,44 -24,87 -25,0 -50,1 -76,1 8,-34 16,-68 24,-101 8,-34 16,-67 24,-101 4,-15 5,-25 5,-30 0,-5 -1,-9 -3,-12 -2,-3 -5,-5 -8,-7 -3,-1 -10,-2 -21,-2 1,-3 2,-6 3,-9 31,-7 62,-14 93,-20 6,0 12,0 18,0z"/>
   <path id="_149255976" class="fil0" d="M1102 567c-9,29 -19,58 -28,88 -9,30 -18,60 -26,91 -2,8 -4,15 -6,23 -1,3 -1,5 -1,6 0,2 1,5 3,6 2,2 4,3 5,3 4,0 11,-3 18,-8 3,-2 10,-11 22,-25 4,2 7,4 11,5 -14,24 -29,41 -46,52 -17,11 -35,17 -54,17 -12,0 -21,-3 -28,-9 -6,-6 -10,-13 -10,-22 0,-8 3,-22 9,-42 2,-8 5,-16 7,-23 -23,38 -45,66 -67,82 -13,10 -26,14 -41,15 -19,0 -33,-7 -42,-23 -9,-15 -13,-32 -14,-52 -1,-28 7,-61 24,-98 17,-37 39,-66 68,-86 24,-17 46,-23 67,-21 12,1 21,6 28,13 7,7 13,19 17,36 3,-11 7,-23 10,-34 25,2 50,5 74,7zm-99 40c0,-16 -3,-27 -9,-35 -4,-5 -9,-8 -15,-9 -6,-1 -13,1 -20,7 -14,11 -28,35 -43,71 -15,37 -22,70 -21,97 0,11 2,19 6,23 4,5 8,7 12,7 10,0 19,-5 28,-15 13,-14 25,-32 35,-52 18,-35 27,-67 26,-95z"/>
   <path id="_148765392" class="fil0" d="M1201 465c13,3 25,8 37,17 12,9 22,18 26,29 4,10 2,18 -6,24 -8,6 -18,8 -31,6 -13,-2 -24,-8 -34,-17 -10,-9 -17,-19 -21,-30 -4,-11 -4,-19 1,-25 5,-6 14,-7 27,-5z"/>
   <path id="_148765320" class="fil0" d="M1249 586c-10,28 -20,57 -30,86 -9,29 -19,59 -28,90 -3,10 -4,18 -4,21 0,2 1,3 3,5 2,2 4,3 6,3 4,0 7,-1 10,-4 9,-6 20,-17 32,-33 4,2 8,4 11,5 -30,44 -63,66 -99,66 -14,0 -24,-3 -33,-10 -8,-7 -12,-15 -13,-26 0,-7 1,-15 5,-26 6,-21 13,-43 19,-64 6,-21 13,-42 19,-62 4,-12 6,-20 5,-27 0,-4 -2,-8 -6,-11 -4,-4 -10,-6 -16,-7 -3,-1 -7,-1 -11,-1 1,-3 2,-7 4,-10 35,1 71,1 106,2 6,1 12,2 19,3z"/>
   <path id="_148765248" class="fil0" d="M1403 488c7,46 -2,90 -18,134 -16,44 -31,89 -45,134 -5,16 -8,26 -7,30 0,2 1,4 3,5 2,2 4,2 6,2 4,0 7,-1 10,-3 10,-6 21,-17 32,-31 4,1 8,3 12,4 -18,24 -37,42 -56,52 -13,7 -27,11 -42,11 -14,0 -25,-3 -33,-9 -8,-6 -13,-13 -13,-22 0,-6 2,-16 6,-30 12,-38 24,-75 37,-112 13,-37 28,-72 37,-109 3,-12 1,-20 -1,-24 -2,-4 -5,-7 -11,-10 -8,-4 -17,-6 -28,-7 -1,-3 -1,-6 -1,-9 31,-1 63,-3 94,-7 6,0 12,0 19,0z"/>
   <polyline id="_148765176" class="fil1" points="1404,737 1568,737 1808,969 1879,479 2048,751 2099,649 2367,649 "/>
   <path id="_148765104" class="fil0" d="M1333 818c0,-7 2,-16 6,-24 0,0 1,0 1,0 4,0 7,-1 10,-3 10,-6 21,-17 32,-31l18 -27c169,-94 271,43 375,144l58 -405c3,-24 26,-41 50,-38 14,2 25,10 31,21l0 0 128 205 16 -31c8,-15 23,-24 40,-24l0 0 267 0c25,0 45,20 45,45 0,25 -20,45 -45,45l-240 0 -38 75c-4,8 -9,15 -17,19 -21,13 -48,7 -61,-14l-105 -169 -53 370 0 0c-1,9 -5,18 -12,25 -17,18 -45,18 -63,1 -130,-108 -262,-307 -444,-184z"/>
   <rect id="_148765032" class="fil2" x="1658" y="219" width="1086" height="895"/>
   <path id="_148764960" class="fil3" d="M1411 719l-48 -34c-8,23 -16,47 -23,71 -5,16 -8,26 -7,30 0,2 1,4 3,5 2,2 4,2 6,2 4,0 7,-1 10,-3 10,-6 21,-17 32,-31l28 -40z"/>
   <path id="_148764576" class="fil4" d="M1658 762l114 113 59 -419c3,-25 26,-42 51,-39 15,2 27,11 34,23l129 215 14 -28c8,-16 24,-25 41,-25l0 0 267 0c25,0 46,20 46,46 0,25 -20,46 -46,46l-239 0 -38 76 0 0c-4,7 -10,14 -17,19 -22,13 -49,6 -62,-16l-106 -177 -53 381 0 0c-1,9 -6,19 -13,26 -18,18 -47,18 -64,0l-115 -114 0 -128zm858 -159c22,0 41,18 41,41 0,22 -18,41 -41,41 -22,0 -41,-18 -41,-41 0,-22 18,-41 41,-41z"/>
   <path class="fil5" d="M2804 219c10,0 19,4 26,11l0 0c7,7 11,16 11,26 0,10 -4,19 -11,26l0 0c-7,7 -16,11 -26,11 -10,0 -19,-4 -26,-11l0 0c-7,-7 -11,-16 -11,-26 0,-10 4,-19 11,-26l0 0c7,-7 16,-11 26,-11zm14 55l-9 -12c-1,0 -3,0 -4,0l-11 0 0 12 -3 0 0 -37 13 0c5,0 8,1 11,3 3,2 4,5 4,9 0,3 -1,5 -2,7 -2,2 -4,3 -6,4l9 13 -3 0zm-12 -14c4,0 7,-1 9,-3 2,-2 3,-4 3,-7 0,-3 -1,-6 -3,-7 -2,-2 -5,-3 -9,-3l-11 0 0 20 11 0zm22 -28c-6,-6 -14,-10 -24,-10 -9,0 -18,4 -24,10 -6,6 -10,14 -10,24 0,9 4,18 10,24 6,6 14,10 24,10 9,0 18,-4 24,-10 6,-6 10,-14 10,-24 0,-9 -4,-18 -10,-24z"/>
  </g>
 </g>
</svg>
